P3
# feep.ascii.ppm
24 7
15
0 0 0 0 0 0  0 0 0  0 0 0  0 0 0  0 0 0  0 0 0  0 0 0  0 0 0 0 0 0  0 0 0  0 0 0  0 0 0  0 0 0  0 0 0  0 0 0  0 0 0 0 0 0  0 0 0  0 0 0  0 0 0  0 0 0  0 0 0  0 0 0
0 0 0 15 5 0  15 5 0  15 5 0  15 5 0  0 0 0  0 0 0  0 15 5  0 15 5 0 15 5  0 15 5  0 0 0  0 0 0 15 15 15 15 15 15 15 15 15 15 15 15 0 0 0  0 0 0 5 0 15 5 0 15 5 0 15 5 0 15  0 0 0
0 0 0 15 5 0  0 0 0  0 0 0  0 0 0  0 0 0  0 0 0  0 15 5  0 0 0 0 0 0  0 0 0  0 0 0  0 0 0 15 0 0  0 0 0  0 0 0  0 0 0 0 0 0  0 0 0 5 0 15  0 0 0  0 0 0 5 0 15  0 0 0
0 0 0 15 5 0  15 5 0  15 5 0  0 0 0  0 0 0  0 0 0  0 15 5  0 15 5 0 15 5  0 0 0  0 0 0  0 0 0 0 15 0 0 15 0 0 15 0  0 0 0 0 0 0  0 0 0 5 0 15 5 0 15 5 0 15 5 0 15  0 0 0
0 0 0 15 5 0  0 0 0  0 0 0  0 0 0  0 0 0  0 0 0  0 15 5  0 0 0 0 0 0  0 0 0  0 0 0  0 0 0 0 0 15  0 0 0  0 0 0  0 0 0 0 0 0  0 0 0 5 0 15  0 0 0  0 0 0  0 0 0  0 0 0
0 0 0 15 5 0  0 0 0  0 0 0  0 0 0  0 0 0  0 0 0  0 15 5  0 15 5 0 15 5  0 15 5  0 0 0  0 0 0 3 3 3 3 3 3 3 3 3 3 3 3 0 0 0  0 0 0 5 0 15  0 0 0  0 0 0  0 0 0  0 0 0
0 0 0 0 0 0  0 0 0  0 0 0  0 0 0  0 0 0  0 0 0  0 0 0  0 0 0 0 0 0  0 0 0  0 0 0  0 0 0  0 0 0  0 0 0  0 0 0  0 0 0 0 0 0  0 0 0  0 0 0  0 0 0  0 0 0  0 0 0  0 0 0

