P1
120 35
0000000000000000000000000000000000000000000000000000000000000000000000
00000000000000000000000000000000000000000000000000
0000000000000000000000000000000000000000000000000000000000000000000000
00000000000000000000000000000000000000000000000000
0000000000000000000000000000000000000000000000000000000000000000000000
00000000000000000000000000000000000000000000000000
0000000000000000000000000000000000000000000000000000000000000000000000
00000000000000000000000000000000000000000000000000
0000000000000000000000000000000000000000000000000000000000000000000000
00000000000000000000000000000000000000000000000000
0000011111111111111111111000000000011111111111111111111000000000011111
11111111111111100000000001111111111111111111100000
0000011111111111111111111000000000011111111111111111111000000000011111
11111111111111100000000001111111111111111111100000
0000011111111111111111111000000000011111111111111111111000000000011111
11111111111111100000000001111111111111111111100000
0000011111111111111111111000000000011111111111111111111000000000011111
11111111111111100000000001111111111111111111100000
0000011111111111111111111000000000011111111111111111111000000000011111
11111111111111100000000001111111111111111111100000
0000011111000000000000000000000000011111000000000000000000000000011111
00000000000000000000000001111100000000001111100000
0000011111000000000000000000000000011111000000000000000000000000011111
00000000000000000000000001111100000000001111100000
0000011111000000000000000000000000011111000000000000000000000000011111
00000000000000000000000001111100000000001111100000
0000011111000000000000000000000000011111000000000000000000000000011111
00000000000000000000000001111100000000001111100000
0000011111000000000000000000000000011111000000000000000000000000011111
00000000000000000000000001111100000000001111100000
0000011111111111111100000000000000011111111111111100000000000000011111
11111111110000000000000001111111111111111111100000
0000011111111111111100000000000000011111111111111100000000000000011111
11111111110000000000000001111111111111111111100000
0000011111111111111100000000000000011111111111111100000000000000011111
11111111110000000000000001111111111111111111100000
0000011111111111111100000000000000011111111111111100000000000000011111
11111111110000000000000001111111111111111111100000
0000011111111111111100000000000000011111111111111100000000000000011111
11111111110000000000000001111111111111111111100000
0000011111000000000000000000000000011111000000000000000000000000011111
00000000000000000000000001111100000000000000000000
0000011111000000000000000000000000011111000000000000000000000000011111
00000000000000000000000001111100000000000000000000
0000011111000000000000000000000000011111000000000000000000000000011111
00000000000000000000000001111100000000000000000000
0000011111000000000000000000000000011111000000000000000000000000011111
00000000000000000000000001111100000000000000000000
0000011111000000000000000000000000011111000000000000000000000000011111
00000000000000000000000001111100000000000000000000
0000011111000000000000000000000000011111111111111111111000000000011111
11111111111111100000000001111100000000000000000000
0000011111000000000000000000000000011111111111111111111000000000011111
11111111111111100000000001111100000000000000000000
0000011111000000000000000000000000011111111111111111111000000000011111
11111111111111100000000001111100000000000000000000
0000011111000000000000000000000000011111111111111111111000000000011111
11111111111111100000000001111100000000000000000000
0000011111000000000000000000000000011111111111111111111000000000011111
11111111111111100000000001111100000000000000000000
0000000000000000000000000000000000000000000000000000000000000000000000
00000000000000000000000000000000000000000000000000
0000000000000000000000000000000000000000000000000000000000000000000000
00000000000000000000000000000000000000000000000000
0000000000000000000000000000000000000000000000000000000000000000000000
00000000000000000000000000000000000000000000000000
0000000000000000000000000000000000000000000000000000000000000000000000
00000000000000000000000000000000000000000000000000
0000000000000000000000000000000000000000000000000000000000000000000000
00000000000000000000000000000000000000000000000000
